<svg xmlns="http://www.w3.org/2000/svg" xmlns:xlink="http://www.w3.org/1999/xlink" width="142.884" height="42.336" viewBox="0 0 142.884 42.336"><defs><style>.a{fill:#fff;}.b{fill:#a6a6a6;}.c{fill:url(#a);}</style><linearGradient id="a" x1="-1.199" y1="2.436" x2="-1.199" y2="1.535" gradientUnits="objectBoundingBox"><stop offset="0" stop-color="#1a1a1a" stop-opacity="0.102"/><stop offset="0.123" stop-color="#212121" stop-opacity="0.153"/><stop offset="0.308" stop-color="#353535" stop-opacity="0.227"/><stop offset="0.532" stop-color="#575757" stop-opacity="0.318"/><stop offset="0.783" stop-color="#858585" stop-opacity="0.42"/><stop offset="1" stop-color="#b3b3b3" stop-opacity="0.51"/></linearGradient></defs><path class="a" d="M144.555,39.957a4.055,4.055,0,0,1-4.06,4.055H7.627a4.061,4.061,0,0,1-4.065-4.055V7.621a4.066,4.066,0,0,1,4.065-4.06H140.494a4.06,4.06,0,0,1,4.06,4.06Z" transform="translate(-2.619 -2.619)"/><path class="b" d="M137.876,42.336H5.008a5.008,5.008,0,0,1-5.008-5V5A5.011,5.011,0,0,1,5.008,0H137.875a5.013,5.013,0,0,1,5.008,5V37.338a5.007,5.007,0,0,1-5.007,5Z" transform="translate(0 0)"/><path d="M144.555,39.957a4.055,4.055,0,0,1-4.06,4.055H7.627a4.061,4.061,0,0,1-4.065-4.055V7.621a4.066,4.066,0,0,1,4.065-4.06H140.494a4.06,4.06,0,0,1,4.06,4.06Z" transform="translate(-2.619 -2.619)"/><path class="a" d="M69.554,39.238a6.137,6.137,0,0,1,2.924-5.15,6.288,6.288,0,0,0-4.952-2.676c-2.083-.219-4.1,1.246-5.165,1.246-1.082,0-2.716-1.225-4.477-1.189a6.593,6.593,0,0,0-5.549,3.383c-2.4,4.153-.61,10.257,1.689,13.614,1.15,1.645,2.494,3.48,4.253,3.415,1.721-.07,2.364-1.1,4.44-1.1,2.058,0,2.661,1.1,4.455,1.054,1.847-.029,3.01-1.652,4.12-3.311a13.573,13.573,0,0,0,1.884-3.836,5.937,5.937,0,0,1-3.622-5.456ZM66.165,29.2a6.04,6.04,0,0,0,1.383-4.329,6.154,6.154,0,0,0-3.98,2.058A5.748,5.748,0,0,0,62.149,31.1,5.084,5.084,0,0,0,66.165,29.2Z" transform="translate(-37.649 -18.293)"/><path class="c" d="M323.276,0H252.108l27.875,42.336h43.293a5.011,5.011,0,0,0,5.008-5V5a5.013,5.013,0,0,0-5.008-5Z" transform="translate(-185.4 0)"/><g transform="translate(44.932 6.938)"><path class="a" d="M181.709,52.634h-2.4L177.987,48.5h-4.579l-1.255,4.138h-2.341l4.538-14.089h2.8ZM177.59,46.76,176.4,43.081q-.189-.564-.71-2.654h-.042q-.21.9-.669,2.654l-1.171,3.679Zm15.766.67a5.752,5.752,0,0,1-1.408,4.1,4.13,4.13,0,0,1-3.133,1.338,3.136,3.136,0,0,1-2.9-1.441v5.331h-2.258V45.815q0-1.628-.084-3.339h1.986l.126,1.61h.042a4.017,4.017,0,0,1,6.429-.4A5.615,5.615,0,0,1,193.356,47.43Zm-2.3.083a4.184,4.184,0,0,0-.669-2.446,2.313,2.313,0,0,0-1.965-1,2.348,2.348,0,0,0-1.515.554,2.568,2.568,0,0,0-.889,1.454,2.947,2.947,0,0,0-.105.687v1.695a2.717,2.717,0,0,0,.68,1.872,2.257,2.257,0,0,0,1.766.763,2.314,2.314,0,0,0,1.986-.982A4.325,4.325,0,0,0,191.056,47.512Zm13.988-.083a5.752,5.752,0,0,1-1.408,4.1,4.133,4.133,0,0,1-3.134,1.338,3.136,3.136,0,0,1-2.9-1.441v5.331h-2.258V45.815q0-1.628-.084-3.339h1.986l.126,1.61h.042a4.018,4.018,0,0,1,6.43-.4A5.621,5.621,0,0,1,205.044,47.43Zm-2.3.083a4.187,4.187,0,0,0-.671-2.446,2.31,2.31,0,0,0-1.963-1,2.359,2.359,0,0,0-1.517.554,2.565,2.565,0,0,0-.887,1.454,3.016,3.016,0,0,0-.106.687v1.695a2.726,2.726,0,0,0,.679,1.872,2.261,2.261,0,0,0,1.768.763,2.311,2.311,0,0,0,1.986-.982A4.324,4.324,0,0,0,202.743,47.512Zm15.369,1.17a3.764,3.764,0,0,1-1.253,2.927,5.555,5.555,0,0,1-3.839,1.233,6.7,6.7,0,0,1-3.649-.877l.522-1.881a6.282,6.282,0,0,0,3.262.878,3.076,3.076,0,0,0,1.986-.575,1.877,1.877,0,0,0,.713-1.535,1.968,1.968,0,0,0-.587-1.443,5.437,5.437,0,0,0-1.944-1.086q-3.7-1.38-3.7-4.036a3.563,3.563,0,0,1,1.307-2.843,5.168,5.168,0,0,1,3.461-1.109,6.838,6.838,0,0,1,3.2.669l-.566,1.84a5.6,5.6,0,0,0-2.708-.648,2.755,2.755,0,0,0-1.868.585,1.676,1.676,0,0,0-.566,1.277,1.725,1.725,0,0,0,.649,1.379,7.314,7.314,0,0,0,2.048,1.086,6.944,6.944,0,0,1,2.676,1.713A3.569,3.569,0,0,1,218.111,48.683Zm7.484-4.513h-2.489V49.1q0,1.882,1.317,1.88a3.967,3.967,0,0,0,1-.1l.062,1.714a5.116,5.116,0,0,1-1.756.25,2.706,2.706,0,0,1-2.092-.816,4,4,0,0,1-.753-2.739V44.165h-1.483V42.471h1.483v-1.86l2.217-.669v2.53H225.6Zm11.206,3.3a5.573,5.573,0,0,1-1.338,3.846,4.772,4.772,0,0,1-3.721,1.547,4.549,4.549,0,0,1-3.565-1.482,5.4,5.4,0,0,1-1.328-3.741,5.527,5.527,0,0,1,1.369-3.866,4.747,4.747,0,0,1,3.691-1.506,4.645,4.645,0,0,1,3.6,1.484,5.334,5.334,0,0,1,1.3,3.718Zm-2.34.052a4.545,4.545,0,0,0-.6-2.4,2.235,2.235,0,0,0-2.029-1.21,2.267,2.267,0,0,0-2.07,1.21,4.623,4.623,0,0,0-.606,2.439,4.535,4.535,0,0,0,.606,2.4,2.315,2.315,0,0,0,4.08-.02,4.562,4.562,0,0,0,.624-2.42Zm9.682-3.063a3.929,3.929,0,0,0-.712-.062,2.131,2.131,0,0,0-1.84.9,3.388,3.388,0,0,0-.564,2.006v5.331H238.77v-6.96q0-1.6-.066-3.2h1.967l.083,1.944h.062a3.487,3.487,0,0,1,1.129-1.61,2.731,2.731,0,0,1,1.632-.544,3.626,3.626,0,0,1,.564.041Zm10.1,2.614a5.29,5.29,0,0,1-.082,1.024h-6.773a2.946,2.946,0,0,0,.983,2.3,3.36,3.36,0,0,0,2.215.709,7.5,7.5,0,0,0,2.741-.479l.354,1.566a8.473,8.473,0,0,1-3.407.628,4.94,4.94,0,0,1-3.713-1.389,5.134,5.134,0,0,1-1.348-3.731,5.817,5.817,0,0,1,1.256-3.824,4.327,4.327,0,0,1,3.553-1.629,3.787,3.787,0,0,1,3.326,1.629,5.482,5.482,0,0,1,.9,3.2Zm-2.153-.586a3.057,3.057,0,0,0-.438-1.735,1.972,1.972,0,0,0-1.8-.942,2.141,2.141,0,0,0-1.8.92,3.374,3.374,0,0,0-.668,1.755Zm-79.33-12.924a14.426,14.426,0,0,1-1.624-.083V26.67a12.294,12.294,0,0,1,1.911-.144c2.589,0,3.782,1.274,3.782,3.35,0,2.395-1.408,3.689-4.07,3.689Zm.379-6.165a4.508,4.508,0,0,0-.894.072V32.65a5.858,5.858,0,0,0,.75.031,2.454,2.454,0,0,0,2.662-2.774,2.259,2.259,0,0,0-2.518-2.507Zm7.407,6.217a2.377,2.377,0,0,1-2.405-2.568,2.432,2.432,0,0,1,2.488-2.64,2.358,2.358,0,0,1,2.4,2.559A2.446,2.446,0,0,1,180.543,33.616Zm.042-4.4c-.8,0-1.315.749-1.315,1.8,0,1.028.524,1.778,1.3,1.778s1.3-.8,1.3-1.8c0-1.016-.513-1.777-1.294-1.777Zm10.767-.708L189.789,33.5h-1.018l-.647-2.168a16.438,16.438,0,0,1-.4-1.612H187.7a10.79,10.79,0,0,1-.4,1.612l-.688,2.168h-1.028l-1.47-4.993h1.14l.565,2.374q.2.848.339,1.6h.021a16.386,16.386,0,0,1,.411-1.592l.709-2.383h.9l.679,2.332q.236.813.4,1.644h.03a14.392,14.392,0,0,1,.339-1.644l.607-2.332ZM197.1,33.5h-1.11V30.636c0-.883-.339-1.326-1.007-1.326a1.153,1.153,0,0,0-1.11,1.223V33.5h-1.11V29.937c0-.441-.011-.915-.041-1.428h.976l.052.771h.031a1.794,1.794,0,0,1,1.583-.872c1.048,0,1.737.8,1.737,2.106Zm3.061,0h-1.111V26.219h1.111Zm4.046.113a2.377,2.377,0,0,1-2.405-2.568,2.432,2.432,0,0,1,2.487-2.64,2.357,2.357,0,0,1,2.4,2.559A2.446,2.446,0,0,1,204.208,33.616Zm.041-4.4c-.8,0-1.315.749-1.315,1.8,0,1.028.525,1.778,1.3,1.778s1.3-.8,1.3-1.8c0-1.016-.511-1.777-1.293-1.777ZM211.07,33.5l-.08-.575h-.03a1.7,1.7,0,0,1-1.461.688,1.452,1.452,0,0,1-1.53-1.469c0-1.232,1.069-1.87,2.919-1.87v-.092c0-.657-.348-.987-1.037-.987a2.337,2.337,0,0,0-1.3.37l-.226-.729a3.194,3.194,0,0,1,1.715-.432c1.3,0,1.963.688,1.963,2.066v1.839a7.546,7.546,0,0,0,.072,1.192Zm-.153-2.487c-1.232,0-1.851.3-1.851,1.007a.707.707,0,0,0,.761.78,1.063,1.063,0,0,0,1.09-1.016Zm6.471,2.487-.052-.8h-.031a1.674,1.674,0,0,1-1.6.915,2.276,2.276,0,0,1-2.1-2.548c0-1.562.925-2.662,2.187-2.662a1.5,1.5,0,0,1,1.408.679h.022V26.219h1.111v5.938c0,.483.012.935.041,1.346Zm-.164-2.938a1.208,1.208,0,0,0-1.169-1.295c-.823,0-1.326.73-1.326,1.756,0,1.007.522,1.7,1.3,1.7a1.246,1.246,0,0,0,1.191-1.326Zm8.154,3.051a2.376,2.376,0,0,1-2.4-2.568,2.432,2.432,0,0,1,2.486-2.64,2.357,2.357,0,0,1,2.405,2.559,2.446,2.446,0,0,1-2.488,2.65Zm.041-4.4c-.8,0-1.314.75-1.314,1.8,0,1.028.524,1.778,1.3,1.778s1.3-.8,1.3-1.8c0-1.016-.511-1.777-1.294-1.777Zm8.415,4.285h-1.111V30.636c0-.883-.339-1.326-1.007-1.326a1.152,1.152,0,0,0-1.109,1.223V33.5H229.5V29.937c0-.441-.011-.915-.041-1.428h.976l.052.771h.031a1.794,1.794,0,0,1,1.582-.873c1.048,0,1.738.8,1.738,2.106Zm7.467-4.161H240.08v2.425c0,.617.214.925.646.925a2.187,2.187,0,0,0,.492-.052l.031.843a2.458,2.458,0,0,1-.861.124c-.875,0-1.4-.483-1.4-1.747V29.342h-.729V28.51h.729V27.6l1.09-.329v1.243H241.3Zm5.875,4.161h-1.109V30.657c0-.894-.338-1.346-1.007-1.346a1.088,1.088,0,0,0-1.111,1.182V33.5h-1.109V26.219h1.109v3h.022a1.684,1.684,0,0,1,1.5-.812c1.057,0,1.7.822,1.7,2.127Zm6.019-2.23h-3.331a1.433,1.433,0,0,0,1.574,1.479,3.753,3.753,0,0,0,1.346-.236l.173.771a4.17,4.17,0,0,1-1.675.308,2.318,2.318,0,0,1-2.486-2.516,2.439,2.439,0,0,1,2.362-2.682,2.1,2.1,0,0,1,2.077,2.373A2.138,2.138,0,0,1,253.2,31.273Zm-1.018-.791c0-.771-.389-1.315-1.1-1.315a1.316,1.316,0,0,0-1.214,1.315Z" transform="translate(-169.812 -26.219)"/></g></svg>