<svg xmlns="http://www.w3.org/2000/svg" xmlns:xlink="http://www.w3.org/1999/xlink" width="50.717" height="35.012" viewBox="0 0 50.717 35.012"><defs><style>.a{fill:url(#a);}.b{fill:url(#b);}</style><linearGradient id="a" y1="0.5" x2="1" y2="0.5" gradientUnits="objectBoundingBox"><stop offset="0" stop-color="#00bebc"/><stop offset="1" stop-color="#1b1464"/></linearGradient><linearGradient id="b" x1="0" y1="0.5" x2="1" y2="0.5" xlink:href="#a"/></defs><g transform="translate(-438.6 -327.56)"><path class="a" d="M448.519,359.7a2.87,2.87,0,0,0,2.868,2.868h-9.919A2.868,2.868,0,0,1,438.6,359.7V330.428a2.868,2.868,0,0,1,2.868-2.868h.226a41.365,41.365,0,0,1,22.264,7.041C455.046,340.49,448.519,349.548,448.519,359.7Z" transform="translate(0)"/><path class="b" d="M743.355,330.428V359.7a2.868,2.868,0,0,1-2.869,2.868h-9.919a2.87,2.87,0,0,0,2.868-2.868c0-10.156-6.528-19.214-15.436-25.1a41.388,41.388,0,0,1,22.264-7.041h.226A2.868,2.868,0,0,1,743.355,330.428Z" transform="translate(-254.038)"/><path class="a" d="M577.407,429.966a2.849,2.849,0,0,1-.852,2.03,2.91,2.91,0,0,1-2.052.841H549.062A2.912,2.912,0,0,1,547.01,432a2.848,2.848,0,0,1-.85-2.03c0-10.167,6.6-19.228,15.623-25.126C570.8,410.738,577.407,419.8,577.407,429.966Z" transform="translate(-97.796 -70.265)"/></g></svg>