<svg xmlns="http://www.w3.org/2000/svg" xmlns:xlink="http://www.w3.org/1999/xlink" width="35.092" height="24.225" viewBox="0 0 35.092 24.225"><defs><style>.a{fill:url(#a);}.b{fill:url(#b);}</style><linearGradient id="a" y1="0.5" x2="1" y2="0.5" gradientUnits="objectBoundingBox"><stop offset="0" stop-color="#00bebc"/><stop offset="1" stop-color="#1b1464"/></linearGradient><linearGradient id="b" x1="0" y1="0.5" x2="1" y2="0.5" xlink:href="#a"/></defs><path class="a" d="M445.463,349.8a1.986,1.986,0,0,0,1.985,1.985h-6.863A1.985,1.985,0,0,1,438.6,349.8V329.545a1.985,1.985,0,0,1,1.985-1.985h.156a28.621,28.621,0,0,1,15.4,4.872C449.979,336.506,445.463,342.774,445.463,349.8Z" transform="translate(-438.6 -327.56)"/><path class="b" d="M735.543,329.545V349.8a1.985,1.985,0,0,1-1.985,1.985H726.7a1.986,1.986,0,0,0,1.985-1.985c0-7.027-4.517-13.294-10.68-17.369a28.637,28.637,0,0,1,15.4-4.872h.156A1.984,1.984,0,0,1,735.543,329.545Z" transform="translate(-700.452 -327.56)"/><path class="a" d="M567.78,422.225a1.971,1.971,0,0,1-.59,1.4,2.013,2.013,0,0,1-1.419.582h-17.6a2.014,2.014,0,0,1-1.419-.582,1.97,1.97,0,0,1-.588-1.4c0-7.034,4.57-13.3,10.81-17.385C563.21,408.921,567.78,415.192,567.78,422.225Z" transform="translate(-539.404 -399.986)"/></svg>