<svg xmlns="http://www.w3.org/2000/svg" xmlns:xlink="http://www.w3.org/1999/xlink" width="653.812" height="580.891" viewBox="0 0 653.812 580.891"><defs><style>.a,.q{fill:none;}.a{stroke:#535461;stroke-miterlimit:10;stroke-width:2px;}.b{fill:#6c63ff;}.c{opacity:0.25;}.d{fill:url(#a);}.e{fill:url(#b);}.f{fill:#e8f5ff;}.g{fill:#a0616a;}.h,.k,.o{opacity:0.1;}.i{fill:#575a89;}.j{fill:#dce6f2;}.k,.l{fill:#fff;}.m{fill:#333;}.n{fill:#353146;}.p{fill:#ff748e;}</style><linearGradient id="a" x1="0.5" y1="1" x2="0.5" gradientUnits="objectBoundingBox"><stop offset="0" stop-color="gray" stop-opacity="0.251"/><stop offset="0.54" stop-color="gray" stop-opacity="0.122"/><stop offset="1" stop-color="gray" stop-opacity="0.102"/></linearGradient><linearGradient id="b" x1="0.5" y1="1" x2="0.5" y2="0" xlink:href="#a"/></defs><g transform="translate(-85.662 -0.015)"><path class="a" d="M267.382,739.514s-40.82-30.86-48.531-70.113a77.587,77.587,0,0,0-23.905-42.831,130.618,130.618,0,0,0-19.126-14.25" transform="translate(-65.504 -201.403)"/><path class="b" d="M162.261,577.468c3.577,4.839,5.2,25.345,5.2,25.345s-19.126-7.533-22.711-12.365a10.9,10.9,0,0,1,17.515-12.981Z" transform="translate(-56.94 -191.28)"/><path class="b" d="M207.746,597.132c.371,6-9.4,24.1-9.4,24.1S186.371,604.5,185.992,598.5a10.895,10.895,0,1,1,21.747-1.366Z" transform="translate(-68.121 -194.854)"/><path class="b" d="M252.843,657.513c-2.7,5.373-20.284,16.061-20.284,16.061s-1.878-20.484.824-25.858a10.894,10.894,0,1,1,19.461,9.8Z" transform="translate(-79.969 -208.982)"/><path class="b" d="M276.036,712.866c-1.759,5.752-17.278,19.252-17.278,19.252s-5.321-19.868-3.562-25.627a10.9,10.9,0,1,1,20.84,6.375Z" transform="translate(-85.878 -223.694)"/><path class="b" d="M175.519,645.213c5.937.8,24.707-7.674,24.707-7.674s-15.838-13.122-21.805-13.923a10.9,10.9,0,1,0-2.9,21.6Z" transform="translate(-62.991 -204.29)"/><path class="b" d="M202.425,708.969c5.937-1.017,21.278-14.71,21.278-14.71s-19.044-7.778-24.974-6.761a10.895,10.895,0,1,0,3.711,21.471Z" transform="translate(-69.08 -220.762)"/><path class="b" d="M238.813,767.08c6.019,0,23.46-10.9,23.46-10.9s-17.449-10.888-23.468-10.888a10.9,10.9,0,0,0,0,21.79Z" transform="translate(-78.934 -235.686)"/><path class="a" d="M833.49,386.668s25.16-44.568,63.085-57.407a77.58,77.58,0,0,0,39.276-29.383A130.142,130.142,0,0,0,947.422,279" transform="translate(-235.067 -115.465)"/><path class="b" d="M1010.595,261.5c-4.319,4.186-24.425,8.52-24.425,8.52s4.935-19.965,9.255-24.158A10.894,10.894,0,1,1,1010.6,261.5Z" transform="translate(-274.432 -106.128)"/><path class="b" d="M995.028,309.117C989.09,310.29,969.89,303,969.89,303s14.992-14.1,20.892-15.252a10.9,10.9,0,1,1,4.245,21.367Z" transform="translate(-270.234 -117.654)"/><path class="b" d="M941.536,361.988c-5.685-1.967-18.606-17.968-18.606-17.968s20.039-4.587,25.739-2.62a10.895,10.895,0,1,1-7.133,20.589Z" transform="translate(-258.127 -131.427)"/><path class="b" d="M889.345,392.161c-5.937-.98-21.345-14.6-21.345-14.6s18.992-7.912,24.922-6.932a10.906,10.906,0,1,1-3.54,21.523Z" transform="translate(-243.965 -139.068)"/><path class="b" d="M947.3,283.486c-.007,6.019,10.91,23.482,10.91,23.482s10.9-17.441,10.9-23.453a10.9,10.9,0,1,0-21.783,0Z" transform="translate(-264.41 -113.747)"/><path class="b" d="M887.739,318.833c1.8,5.744,17.411,19.141,17.411,19.141s5.2-19.905,3.384-25.65a10.9,10.9,0,0,0-20.781,6.509Z" transform="translate(-248.957 -122.182)"/><path class="b" d="M834.953,362.411c.8,5.937,13.923,21.8,13.923,21.8s8.468-18.74,7.667-24.7a10.9,10.9,0,1,0-21.59,2.9Z" transform="translate(-235.41 -133.721)"/><path class="c" d="M1010.595,261.5c-4.319,4.186-24.425,8.52-24.425,8.52s4.935-19.965,9.255-24.158A10.894,10.894,0,1,1,1010.6,261.5Z" transform="translate(-274.432 -106.128)"/><path class="c" d="M995.028,309.117C989.09,310.29,969.89,303,969.89,303s14.992-14.1,20.892-15.252a10.9,10.9,0,1,1,4.245,21.367Z" transform="translate(-270.234 -117.654)"/><path class="c" d="M941.536,361.988c-5.685-1.967-18.606-17.968-18.606-17.968s20.039-4.587,25.739-2.62a10.895,10.895,0,1,1-7.133,20.589Z" transform="translate(-258.127 -131.427)"/><path class="c" d="M889.345,392.161c-5.937-.98-21.345-14.6-21.345-14.6s18.992-7.912,24.922-6.932a10.906,10.906,0,1,1-3.54,21.523Z" transform="translate(-243.965 -139.068)"/><path class="c" d="M947.3,283.486c-.007,6.019,10.91,23.482,10.91,23.482s10.9-17.441,10.9-23.453a10.9,10.9,0,1,0-21.783,0Z" transform="translate(-264.41 -113.747)"/><path class="c" d="M887.739,318.833c1.8,5.744,17.411,19.141,17.411,19.141s5.2-19.905,3.384-25.65a10.9,10.9,0,0,0-20.781,6.509Z" transform="translate(-248.957 -122.182)"/><path class="c" d="M834.953,362.411c.8,5.937,13.923,21.8,13.923,21.8s8.468-18.74,7.667-24.7a10.9,10.9,0,1,0-21.59,2.9Z" transform="translate(-235.41 -133.721)"/><path class="a" d="M835.44,372.661s4.943-50.943,34.378-78.032a77.61,77.61,0,0,0,24-42.779,130.089,130.089,0,0,0,2.145-23.75" transform="translate(-235.57 -102.342)"/><path class="b" d="M934.571,199.743c-2.227,5.581-18.881,17.693-18.881,17.693s-3.577-20.254-1.328-25.835a10.9,10.9,0,1,1,20.209,8.164Z" transform="translate(-255.726 -91.173)"/><path class="b" d="M938.716,248.715c-4.921,3.459-25.457,4.594-25.457,4.594s8-18.955,12.921-22.414a10.9,10.9,0,1,1,12.535,17.812Z" transform="translate(-255.634 -102.502)"/><path class="b" d="M909.459,318.877c-6,.5-24.3-8.906-24.3-8.906s16.476-12.32,22.473-12.825a10.9,10.9,0,0,1,1.826,21.716Z" transform="translate(-248.389 -120.134)"/><path class="b" d="M874.549,367.481c-5.826,1.484-25.449-4.653-25.449-4.653s14.153-14.925,19.979-16.439a10.9,10.9,0,1,1,5.47,21.093Z" transform="translate(-239.092 -132.749)"/><path class="b" d="M883.8,246.553c2.434,5.5,19.46,17.07,19.46,17.07s2.895-20.365.46-25.865a10.9,10.9,0,0,0-19.92,8.817Z" transform="translate(-247.824 -103.22)"/><path class="b" d="M843.509,302.718c3.971,4.52,23.668,10.442,23.668,10.442s-3.325-20.3-7.3-24.818a10.895,10.895,0,1,0-16.373,14.377Z" transform="translate(-236.952 -116.918)"/><path class="b" d="M813.07,364.25c3.147,5.121,21.56,14.287,21.56,14.287s.156-20.566-2.969-25.694a10.9,10.9,0,0,0-18.554,11.407Z" transform="translate(-229.438 -133.236)"/><path class="d" d="M784.44,149.331c1.232-4.52,2.716-9.062,3.755-13.641C786.949,140.269,785.457,144.826,784.44,149.331Z" transform="translate(-222.421 -78.516)"/><path class="e" d="M641.06,173.011c-.1-.178-.178-.356-.26-.52h0c0-.074-.074-.134-.1-.208a4.65,4.65,0,0,1-.5.2c-.327.126-.661.245-1,.341s-.482.148-.742.208a4.329,4.329,0,0,1-.661.171l.059.134c.275-.059.542-.111.816-.186l.074.92c.312,0,.6-.045.883-.045a3.651,3.651,0,0,1,.4,0h1.484C641.357,173.694,641.194,173.345,641.06,173.011ZM791.722,412.83c-3.488-4.7-10.45-55.121-10.45-55.121s-13.693-35.855-9.96-50.164-10.2-50.921-10.2-50.921-9.2-4-9.7-9.938c0,0-37.576-11.875-39.335-20.781-1.425-7.3-24.729-12.543-33.1-14.2-2.553-10.3-5.121-19.913-7.014-25.16-.512-1.633-.995-3.043-1.44-4.156-3.2-8.164-13.085-8.906-20.254-8.253a11.044,11.044,0,0,0-1.7-3.882,2.13,2.13,0,0,0-.675-1.032,3.95,3.95,0,0,0-.49-.356,2.347,2.347,0,0,0-.5-.638,3.571,3.571,0,0,0-.668-.475,4.454,4.454,0,0,0-.534-.245,7.134,7.134,0,0,0-1.328-.364,10.945,10.945,0,0,0-1.6-.208,9.76,9.76,0,0,0,3.421-2.5,7.132,7.132,0,0,0,1.4-2.583,7.6,7.6,0,0,0,.312-2.434,6.3,6.3,0,0,1-.668.957c.312-3.288-1.425-6.628-2.419-9.9a29.294,29.294,0,0,1-.653-13.1h0c.995-6.576,3.458-13.226,5.128-19.92a.485.485,0,0,0,0-.111,51.719,51.719,0,0,0,1.618-10.16,44.836,44.836,0,0,0-4.334-20.143c-2.531-5.589-6.264-11.088-11.979-13.359-4.245-1.714-9-1.44-13.574-1.722-10.257-.638-20.039-4.245-29.791-7.526s-19.786-6.264-30.051-5.693-20.826,5.522-25.509,14.606c-1.484,2.835-2.338,5.989-4.112,8.654-3.325,5.025-9.277,7.541-14.242,11.006s-9.337,8.387-11.133,14.257a19.022,19.022,0,0,0-.4,9.76h0a17.484,17.484,0,0,0,.624,2.152,15.253,15.253,0,0,0,3.228,5.277A15.741,15.741,0,0,0,513.3,127.3h0a21.575,21.575,0,0,0,5.418,2.108c-.067.223-.134.46-.208.69-.119.379-.223.742-.334,1.15-.245.913-.475,1.841-.668,2.776a.866.866,0,0,0,0,.2,60.615,60.615,0,0,0-1.366,12.847,59.287,59.287,0,0,0,.312,6.116h0a61.862,61.862,0,0,0,58.55,55.418c1.054.052,2.115.082,3.191.082h1.484c.482.638.957,1.291,1.41,1.93s.868,1.291,1.262,1.93l-1.076-1.113h0l-1.076-.987a8.752,8.752,0,0,1-.972,1.121,18.053,18.053,0,0,0-2.145-.609h0a27.5,27.5,0,0,0-13.945.928c-5.678,1.7-12.617,5.2-20.736,11.838l-39.565,23.75-21.4,13.018-7.711,18.851s-5.8,22.4-12.246,48.063c-.252.074-.5.148-.742.238a13.871,13.871,0,0,0-1.573-.089,14.465,14.465,0,0,0-14.487,13.886c-12.825,15.586-13.552,31.171-10.539,38.326h0a10.21,10.21,0,0,0,1.024,1.907c1.974,2.85,5.663,10.2,9.4,18.027-.1.646-.156,1.187-.186,1.6a3.954,3.954,0,0,0,0,.4s2.227,33.628-5.2,43.269c-1.625,2.1-1.38,4.861,0,7.919h0c4.973,11,24.633,25.687,24.633,25.687s23.579-.126,36.716-1.559c-.037,1.321-.067,2.635-.1,3.919-.3,12.973-.3,23.846-.3,23.846l-.49,13.6s-4.453,28.67-6.68,36.574c-1.4,4.958.215,50.861,1.625,84.608H726.908c2.731-19.965-1.121-80.623-1.121-80.623s-3.659-15.682-3.793-29.353a.112.112,0,0,1,0-.1c0-1.195,0-2.36.044-3.5l1.685-.059,3.028-.1h.275s.074-.282.245-.742h0a14.184,14.184,0,0,1,1.625-3.243,8.045,8.045,0,0,1,6.346-3.9c1.677-.067,4.275-1.425,7.207-3.429a.134.134,0,0,0,.059,0c7.889-5.336,18.317-15.185,20.848-16.8,3.481-2.227,20.15-17.07,20.15-17.07s2.486-3.147,5.136-6.939l.1-.134c3.3-4.75,6.8-10.428,5.937-12.216-1.484-3.206.995-10.873.995-10.873C803.411,436.305,795.21,417.528,791.722,412.83ZM648.207,184.552a2.972,2.972,0,0,1,.134.683c-.186-.245-.371-.5-.557-.742l-.178-.238-.126-.178.282-.386v.052h0a2.573,2.573,0,0,1,.445.809Zm-2.494-6.576c-.809.163-1.447.312-1.863.423-.527-.935-1.032-1.87-1.484-2.82a21.518,21.518,0,0,1,3.347,2.4Zm-1.4,1.173a.16.16,0,0,1,0-.045l.059.045h0c.3.2.6.393.876.594h0c.245.178.468.349.69.527a7.075,7.075,0,0,1-.475.742c-.26-.408-.5-.8-.742-1.21A2.67,2.67,0,0,1,644.318,179.149Zm-4.453-9.158a21.961,21.961,0,0,1,4.312,0h0a3.266,3.266,0,0,1,.557.067h0a6.165,6.165,0,0,1,1.18.3,8.622,8.622,0,0,1,1.566,4.164l-.4.059-.393.074c-.742.126-1.484.252-2.063.371l-.742.156c-.987.215-1.559.379-1.581.386-.1-.2-.193-.386-.3-.579-.163-.319-.334-.646-.482-.965s-.341-.683-.5-1.017c-.1-.178-.178-.356-.26-.52h0c0-.074-.074-.134-.1-.208a1.778,1.778,0,0,1-.111-.245c-.453-.92-.868-1.841-1.269-2.746-.045-.089-.082-.186-.119-.275l.564-.037v.193Zm-177.076,460.4a184.113,184.113,0,0,0-3.087-34.229c-.95-4.772-1.93-9.544-2.924-14.235-.252-1.173-.5-2.33-.742-3.488l-2.286.3h-.208c-6.234-29.4-12.751-55.3-12.751-55.3s-12.944-49.421-11.444-53.362c.193-.512-.052-1.893-.6-3.919-3.132-11.237-16.209-42.2-20.781-52.784h0a.418.418,0,0,0-.052-.134h0c-.742-1.774-1.277-2.969-1.44-3.318l1.076-15.794.059-.95.141-2.019-.059-.052.059-.935s-11.3-9.262-30.429-15.949c-.742-.267-1.529-.527-2.308-.779.957-6.39,2.227-13.6,3.882-20.632.156-.705.327-1.388.5-2.078h0c.156-.69.334-1.358.512-2.034.282-1.1.586-2.182.9-3.251,1.032-.327,2.048-.69,3.05-1.076l.386-.148a54.773,54.773,0,0,0,33.4-63.827h0a54.468,54.468,0,0,0-9.559-20.15h0c-.341-.46-.705-.92-1.069-1.373s-.8-.957-1.21-1.418c2.145-4.876,4.676-9.515,4.883-14.257a14.61,14.61,0,0,0,0-1.8h0v-.074c-.275-3.05-1.625-6.138-4.772-9.381-4.594-4.757-11.133-7.169-17.671-8.327s-13.2-1.187-19.779-1.967c-10.9-1.306-21.523-4.668-32.426-5.7a77.045,77.045,0,0,0-39.209,6.68c-8.112,3.711-16.328,10.2-16.818,19.1-.4,7.355,4.72,14.406,3.429,21.672-1.284,7.14-8.557,12.758-7.919,19.979a14.337,14.337,0,0,0,3.5,7.592h0c.623.742,1.284,1.484,1.967,2.227,2.642,2.8,5.552,5.485,7.028,9.01.059.148.119.3.171.445,1.254,3.481.69,7.882-2.412,9.878a.112.112,0,0,1,.037.052h0c.045.059.089.1.126.163a.052.052,0,0,0,0-.037,8.12,8.12,0,0,0,4.238,2.642l.631.193c-.512.557-.994,1.136-1.484,1.744l-.319.423a30.9,30.9,0,0,0-2.227,3.451c-.379.668-.742,1.336-1.046,2a25.174,25.174,0,0,0-2.189,6.435c-.794,4.913.327,10.034-.876,14.844-1.484,5.937-6.182,10.494-8.832,16.009-5.017,10.39-2.175,22.584-1.165,34.059,1.373,15.586-.854,31.238-3.073,46.72q-1.766,12.35-3.533,24.722l-8.906,62.105c-1.084,7.585-2.368,15.586-7.422,21.441h.052a.065.065,0,0,1-.052.059,15.51,15.51,0,0,0,4.78,1.232h0c6.6.661,13.589-2.531,19.527-6.019a92.286,92.286,0,0,0,13.307-9.344q-.913,3.34-1.959,7.266a.4.4,0,0,1,0,.074h0c-8.379,31.914-21.857,90.419-21.857,90.419s-1.225,2.546-2.813,6.338H470.018c-2.449-2.969-4.728-5.811-6.509-8.1ZM307.823,335.3c.052-.089.089-.171.141-.252v1.611h0a5.494,5.494,0,0,1-.119.913v.067l.742.275.861.356h0q7.63,3.013,15.452,5.455c.534.171,1.076.334,1.618.49l.111.92c.134.943.26,1.9.379,2.857v.074c.334,2.65.661,5.292.95,7.874,0,0-13.626-5.2-13.456,2.694a3.851,3.851,0,0,0,0,.423,3.5,3.5,0,0,0,0,.564c.126,6.145,2.048,9.789,2.434,11.66a.528.528,0,0,1-.119.208,4.059,4.059,0,0,0-.327,2.293,22.551,22.551,0,0,0,.312,3.963c-.4.245-.794.49-1.187.742h0c-.3.186-.579.393-.868.6a110.205,110.205,0,0,0-7.118-18.347c-2.041-4.2-4.334-8.58-4.312-13.188a7.451,7.451,0,0,1,.037-.905,15.588,15.588,0,0,1,.757-3.926c.171-.482.356-.957.564-1.425a34.916,34.916,0,0,1,1.625-3.251h0c.386-.7.794-1.388,1.188-2.085.126-.208.245-.423.364-.631ZM641.06,173.011c-.1-.178-.178-.356-.26-.52h0c0-.074-.074-.134-.1-.208a4.65,4.65,0,0,1-.5.2c-.327.126-.661.245-1,.341s-.482.148-.742.208l-.661.171.059.134c.275-.059.542-.111.816-.186l.074.92c.312,0,.6-.045.883-.045h1.885C641.357,173.694,641.194,173.345,641.06,173.011Z" transform="translate(-84.563 -58.66)"/><path class="f" d="M546.87,358.238l-4.453,1.967S513.39,472.971,513.39,482.085s61.549,59.827,61.549,59.827l9.6-64.822S570.753,328.44,546.87,358.238Z" transform="translate(-152.538 -134.877)"/><path class="g" d="M722.951,280.6l-25.716-13.418A51.513,51.513,0,0,0,689.694,250c-3.763-5.433-8.765-10.769-15-13.552-15.756-7.066,66.647-44.152,66.647-44.152a134.078,134.078,0,0,0,4.579,13.137c4.245,10.48,11.288,24.032,20.365,27.891C781.716,239.9,722.951,280.6,722.951,280.6Z" transform="translate(-193.61 -93.112)"/><path class="h" d="M745.921,205.436A61.437,61.437,0,0,1,689.694,250c-3.763-5.433-8.765-10.769-15-13.552-15.756-7.066,66.647-44.152,66.647-44.152a134.045,134.045,0,0,0,4.579,13.137Z" transform="translate(-193.61 -93.112)"/><path class="g" d="M731.82,163.445a61.111,61.111,0,1,1-17.9-43.49A61.4,61.4,0,0,1,731.82,163.445Z" transform="translate(-177.194 -69.845)"/><path class="i" d="M697.319,238.122,680.576,277.19l-14.769,25.932H618.53l-13.79-35.454,5.589-36.767h36.107l23.312-1.314,7.874-2.627,5.077,2.88Z" transform="translate(-133.831 -58.512)"/><path class="h" d="M764.573,230.48s10.442,2.227,1.091,9.893-41.614,32.047-41.614,32.047,11.333,10.094,8.988,21.916l37.547-20.929,6.68-33.487S778.014,229.857,764.573,230.48Z" transform="translate(-206.851 -102.948)"/><path class="h" d="M723.109,287l-23.883,3.941s4.928,18.22,2.464,23.393a3.469,3.469,0,0,0-.186.5l-9.745,26.34,7.3,20.685,25.279-34.474-8.617-13.047s9.107-12.068,14.524-16.254S723.109,287,723.109,287Z" transform="translate(-198.526 -117.528)"/><path class="j" d="M723.109,285.63l-23.883,3.934s4.928,18.22,2.464,23.393a3.468,3.468,0,0,0-.186.5l-9.745,26.34,7.3,20.684,25.278-34.5-8.617-13.047s9.107-12.068,14.524-16.254S723.109,285.63,723.109,285.63Z" transform="translate(-198.526 -117.174)"/><path class="i" d="M765.575,227.83s10.442,2.227,1.084,9.893-42.608,34.014-42.608,34.014,12.313,8.127,9.975,19.942l37.547-20.922,6.68-33.487S778.993,227.207,765.575,227.83Z" transform="translate(-206.851 -102.265)"/><path class="h" d="M688.237,273.18s2.278,4.26,12.335,11.942c0,0-16.744,8.906-10.338,21.427l-25.613-6.68-3.941-12.313Z" transform="translate(-190.513 -113.964)"/><path class="i" d="M686.91,271.86s2.278,4.26,12.335,11.942c0,0-16.744,8.862-10.339,21.419l-25.605-6.68-3.941-12.305Z" transform="translate(-190.172 -113.624)"/><path class="k" d="M754.259,297.783l-16.743,39.068-14.74,25.932H675.47l-13.79-35.454,5.581-36.767H677.3c-.163,8.58,2.969,18.658,2.768,22.406-.341,6.16,9.188,39.395,9.188,39.395s19.942-32.255,27.817-35.127c4.95-1.8,15.437-16.81,22.555-27.735Z" transform="translate(-190.77 -118.172)"/><path class="l" d="M792.085,498.278l-1.7,2.137s12.313,61.8,8.906,75.836a39.839,39.839,0,0,0-.987,7.7v.111c-.6,14.279,3.711,32.812,3.711,32.812s3.444,54.624,1.484,77.09H572.965c-1.351-33.22-2.805-76.259-1.484-81.031,2.227-7.875,6.68-36.441,6.68-36.441l.49-13.537s0-13.085.4-27.661c.171-6.553.423-13.433.787-19.534.468-7.674,1.121-14.138,2.019-17.315a38.174,38.174,0,0,0,.95-7.333,3.794,3.794,0,0,1,.044-.705c0-.742.074-1.544.1-2.368V487.3c.141-4.78.089-10.45-.067-16.328V470c-.126-4.409-.312-8.906-.52-13.181-.646-13.359-1.484-24.655-1.484-24.655L552.57,338.354l7.63-18.792,21.174-12.973,39.15-23.638c19.1-15.7,31.669-13.812,36.463-12.09a12.686,12.686,0,0,1,1.366.557c.148.074.267.134.378.2a3.148,3.148,0,0,1,.438.252h0a9.039,9.039,0,0,0-3.325,2.739,12.112,12.112,0,0,0-2.056,4.453,20.723,20.723,0,0,0-.527,3.035c-.1,1.076-.134,2.189-.134,3.31a57.394,57.394,0,0,0,.631,7.34v.163c.245,1.737.549,3.436.846,5.032a.338.338,0,0,0,0,.082c.341,1.863.683,3.585.913,5.069.045.267.082.512.119.742a16.96,16.96,0,0,1,.23,2.969,36.082,36.082,0,0,0,.965,7.125c.193.98.416,2.026.661,3.117.334,1.484.7,3.1,1.091,4.75.215.905.445,1.841.683,2.768.089.371.186.742.275,1.121l.148.586c1.581,6.286,3.3,12.543,4.349,16.328.624,2.227,1.017,3.6,1.017,3.6s11.177-18.072,20.1-28.359c.134-.148.252-.289.379-.423.883-1.017,1.752-1.944,2.583-2.761a15.257,15.257,0,0,1,4.765-3.577,5.2,5.2,0,0,0,.809-.379c3.651-2.071,9.544-9.589,15.059-17.463.542-.742,1.069-1.551,1.6-2.316,1.225-1.766,2.412-3.54,3.533-5.24.861-1.3,1.685-2.561,2.464-3.763,3.711-5.774,6.323-10.079,6.323-10.079l5.151-.23.9-.045h.6l23.386-1.084s1.009.171,2.672.5a.475.475,0,0,1,.275.059c8.3,1.648,31.349,6.865,32.76,14.1,1.722,8.862,38.9,20.684,38.9,20.684.49,5.937,9.6,9.849,9.6,9.849s13.79,36.441,10.1,50.72c-3.644,14.1,9.485,48.984,9.834,49.963h0l-2.516,3.177Z" transform="translate(-162.639 -113.077)"/><path class="h" d="M767.783,226.455s22.763-6.457,27.936,6.835,16.743,66.974,16.743,66.974-30.043,5.663-37.918,0a22.688,22.688,0,0,0-16.009-4.186l-16.988,11.571-5.017-1.484s27.178-40.4,33.086-54.134S777.52,232.163,767.783,226.455Z" transform="translate(-210.069 -101.514)"/><path class="l" d="M766.463,222.455s22.777-6.457,27.973,6.835,16.744,66.974,16.744,66.974-30.036,5.663-37.918,0a22.666,22.666,0,0,0-16-4.186l-17,11.571-5.017-1.484s27.179-40.4,33.086-54.134S776.2,228.177,766.463,222.455Z" transform="translate(-209.736 -100.482)"/><path class="h" d="M571.348,511.55s16.988,4.186,20.195,13.79-12.558,9.849-12.558,9.849S569.381,518.2,571.348,511.55Z" transform="translate(-167.412 -175.422)"/><path class="h" d="M645.083,607.09s-41.606,85.194-32,93.321S645.083,607.09,645.083,607.09Z" transform="translate(-177.869 -200.054)"/><path class="h" d="M734,522.5s33.242,82.753,26.592,95.533,14.279,0,14.279,0Z" transform="translate(-209.416 -178.245)"/><path class="g" d="M766.664,632.64s-112.276,5.418-79.524,40.382,99.964,1.484,99.964,1.484Z" transform="translate(-195.791 -206.642)"/><path class="h" d="M732.535,163.448a61.109,61.109,0,0,1-4.654,23.468c-1.032.119-2.063.193-3.058.238-1.484-3.258-.69-7.021-.661-10.606s-1.291-7.8-4.742-8.765c-6.88-1.937-11.63,10.925-18.413,8.6-5.2-1.766-3.837-9.648-6.828-14.2-2.367-3.6-7.11-4.616-10.8-6.873-7.845-4.817-7.607-12.521-11.251-19.809-3.815-7.637-11.875-5.381-18.874-.876-5.314,3.429-9.9,8.023-15.586,10.754a38.555,38.555,0,0,1-15.9,3.362,34.949,34.949,0,0,1-9.975-1.054,61.4,61.4,0,0,1,120.737,15.756Z" transform="translate(-177.908 -69.848)"/><path class="m" d="M648.867,123.39c-5.321,3.429-9.9,8.015-15.586,10.762a38.667,38.667,0,0,1-15.9,3.355c-6.68.148-13.871-1.024-18.436-5.848-4.193-4.453-5.2-11.3-3.422-17.144s5.82-9.105,11.021-14.2S618.179,84.841,622.332,81.1c11.213-10.172,16.643-14.1,27.823-16.178s29.949-2.2,41.529,0,25.4,11.021,30.963,16.178c8.17,8.1,7.691,7.78,11.045,14.808,2.828,6.294,5.417,11.717,5.12,18.59-.623,14.673-10.316,29.071-6.056,43.128,1.128,3.748,3.243,7.592,2.115,11.34-1.648,5.47-8.706,6.717-14.413,6.976-1.484-3.258-.69-7.028-.661-10.606s-1.291-7.8-4.735-8.765c-6.887-1.922-11.637,10.917-18.406,8.6-5.158-1.774-3.822-9.648-6.821-14.2-2.368-3.607-7.117-4.616-10.8-6.873-7.845-4.817-7.607-12.521-11.251-19.809C663.94,116.621,655.873,118.877,648.867,123.39Z" transform="translate(-173.497 -60.575)"/><path class="f" d="M516.838,520.051l-5.663,1.974s2.227,33.487-5.2,43.091,24.373,33.48,24.373,33.48,43.581-.245,44.813-3.711-2.227-62.046-2.227-62.046-23.393-9.114-21.427-23.638c0,0-7.14,34.222-17.723,32.745S511.19,531.628,516.838,520.051Z" transform="translate(-150.338 -174.816)"/><ellipse class="h" cx="14.94" cy="13.663" rx="14.94" ry="13.663" transform="translate(370.448 350.163)"/><path class="g" d="M550.234,499.669s-2.969-90.6-28.811-70.418-26.095,44.33-21.174,51.462,20.7,42.838,20.7,42.838h0a18.057,18.057,0,0,0,26.718-11.875Z" transform="translate(-148.51 -153.447)"/><path class="h" d="M715.9,215.1a2.182,2.182,0,0,0-.668-1.024c-1.277-1.165-4.023-1.573-8.164-1.217l.171,1.959c5.522-.475,6.613.623,6.754.809v.186l.171.245a8.283,8.283,0,0,1,1.484,6.531c-1.21,6.049-8.639,10.865-8.713,10.917l-.178.1-.111.171c-3.206,4.757-21.338,18.183-26.08,21.657l-.416-.475c-2.123,1.841-20.781,18.176-21.79,24.432-.653,3.926-5.076,5.448-6.68,5.871-1.692-1.284-7.184-5.655-10.042-10.554-2.679-4.609,8.1-13.6,9.055-17.115l-1.484-1.521c-.156.564-14,13.508-10.153,20.12,3.087,5.307,8.728,9.849,10.7,11.348-.631,5.73-4.557,39.372-10.591,47.343-7.5,9.908-13.8,59.842-13.1,77.275.616,15.489-3.429,44.746-16.936,57.311a21.649,21.649,0,0,1-17.864,5.937h-.327c-.193,0-19.786,2-36.248-11.875-13.47-11.333-21.1-29.828-22.688-54.988h-.327l-.134-7.325a14.287,14.287,0,1,0-2.13.171h.163l.134,7.281-.653.045c1.633,25.976,9.648,45.191,23.75,57.059a54.921,54.921,0,0,0,38.3,12.535,27.571,27.571,0,0,0,2.969.163,24.343,24.343,0,0,0,17.07-6.865c14.227-13.248,18.554-43.581,17.879-59.6-.742-18.473,5.871-66.61,12.506-75.375,6.5-8.6,10.442-42.118,11.133-48.613,2.353-.661,7.674-2.746,8.58-8.164.653-3.919,13.114-15.994,20.781-22.681l-.23-.267c4.126-3.013,16.959-12.513,23.319-18.614,1.974-1.893,3.934-3.785,5.982-5.589,2.464-2.182,5.6-5.648,6.42-9.745A10.131,10.131,0,0,0,715.9,215.1Z" transform="translate(-152.966 -98.38)"/><path class="n" d="M692.013,301.788c-.312-.215-7.7-5.507-11.407-11.875-3.844-6.613,10-19.549,10.153-20.113l1.484,1.521c-.943,3.5-11.726,12.506-9.047,17.107,3.377,5.811,10.487,10.9,10.561,10.947Z" transform="translate(-195.476 -113.093)"/><path class="f" d="M736.358,256.532l-1.158-1.6c.237-.171,23.549-17.033,27.223-22.488l.119-.163.171-.111c.074-.052,7.5-4.861,8.713-10.917a8.231,8.231,0,0,0-1.484-6.524l-.171-.252V214.3c-.148-.193-1.239-1.284-6.761-.809l-.171-1.967c4.149-.356,6.887.052,8.164,1.217a2.226,2.226,0,0,1,.675,1.032,10.138,10.138,0,0,1,1.677,7.874c-.824,4.1-3.948,7.57-6.42,9.745-2.041,1.8-4.008,3.711-5.974,5.589C753.5,244.131,737.174,255.946,736.358,256.532Z" transform="translate(-209.726 -98.037)"/><rect class="f" width="1.967" height="11.956" transform="translate(375.649 300.295) rotate(-1.05)"/><circle class="b" cx="14.361" cy="14.361" r="14.361" transform="translate(361.127 273.347)"/><circle class="f" cx="11.927" cy="11.927" r="11.927" transform="translate(363.561 275.782)"/><path class="n" d="M597.682,491.846a27.57,27.57,0,0,1-2.969-.156,55,55,0,0,1-38.3-12.535c-14.1-11.875-22.1-31.067-23.75-57.066l2.969-.186c1.588,25.16,9.218,43.662,22.7,54.988,16.461,13.842,36.047,11.875,36.24,11.875h.327a21.694,21.694,0,0,0,17.872-5.937c13.5-12.565,17.545-41.822,16.929-57.311-.742-17.449,5.559-67.382,13.062-77.283,6.568-8.676,10.643-47.781,10.687-48.175l.111-1.113,1.1-.193c.067,0,6.479-1.217,7.281-6.012,1.039-6.249,19.668-22.584,21.783-24.432l1.937,2.227c-7.7,6.68-20.157,18.762-20.781,22.688-.905,5.433-6.227,7.511-8.572,8.164-.742,6.5-4.654,40.011-11.133,48.613-6.635,8.765-13.248,56.9-12.506,75.375.638,16.016-3.644,46.356-17.872,59.6A24.351,24.351,0,0,1,597.682,491.846Z" transform="translate(-157.506 -112.709)"/><g class="o" transform="translate(421.819 52.891)"><path d="M783,156.412c1.217-4.5,2.687-9.025,3.711-13.582C785.486,147.409,784.009,151.914,783,156.412Z" transform="translate(-643.869 -133.249)"/><path d="M722.251,188.426c-1.484-3.258-.69-7.028-.661-10.606s-1.291-7.763-4.735-8.765c-6.887-1.922-11.637,10.925-18.406,8.6-5.2-1.774-3.822-9.648-6.821-14.2-2.368-3.607-7.11-4.616-10.791-6.873-7.852-4.817-7.615-12.521-11.251-19.809-3.822-7.644-11.875-5.388-18.881-.876-5.321,3.429-9.9,8.023-15.586,10.762a38.667,38.667,0,0,1-15.9,3.355c-6.643.156-13.871-1.024-18.436-5.848-3.518-3.711-4.787-9.151-4.06-14.25-.126.349-.237.7-.349,1.046-1.781,5.841-.742,12.706,3.422,17.144,4.564,4.824,11.793,6,18.436,5.848A38.7,38.7,0,0,0,634.14,150.6c5.7-2.746,10.279-7.333,15.586-10.762,7.006-4.512,15.066-6.769,18.881.876,3.637,7.288,3.407,14.992,11.251,19.809,3.711,2.227,8.424,3.266,10.8,6.873,2.969,4.564,1.655,12.424,6.821,14.2,6.761,2.316,11.511-10.524,18.4-8.6,3.444.965,4.772,5.2,4.735,8.765s-.809,7.348.661,10.606c5.707-.26,12.765-1.484,14.42-6.976a7.992,7.992,0,0,0,.312-2.427C733.591,187.127,727.387,188.2,722.251,188.426Z" transform="translate(-595.536 -129.92)"/></g><path class="h" d="M904.493,426.106l8.617,9.114s6.895,50.223,10.339,54.921,11.578,23.386,3.941,37.421c0,0-2.464,7.637-.987,10.836S915.328,557.6,915.328,557.6s-16.5,14.769-19.95,16.988-21.664,19.942-27.817,20.187-8.164,7.882-8.164,7.882l-34.719,1.232s-19.178-1-23.349,1.707c0,0,2.227-29.3-19.2-48.509l27.327-9.849S819.8,542.791,823,538.138a16.72,16.72,0,0,1,8.164-6.153s7.63-5.418,7.874-8.372,9.329-6.576,9.329-6.576l-5.143-43.9,2.709-72.882s8.617-61.066,26.837-57.615S904.493,426.106,904.493,426.106Z" transform="translate(-221.825 -131.837)"/><path class="l" d="M908.493,426.106l8.617,9.114s6.895,50.223,10.339,54.921,11.578,23.386,3.941,37.421c0,0-2.457,7.637-.98,10.836S919.328,557.6,919.328,557.6s-16.5,14.769-19.95,16.988-21.664,19.942-27.817,20.187-8.164,7.882-8.164,7.882l-34.719,1.232s-19.193-1-23.349,1.707c0,0,2.227-29.3-19.2-48.509l27.327-9.849S823.8,542.791,827,538.138a16.722,16.722,0,0,1,8.164-6.153s7.63-5.418,7.875-8.372,9.329-6.576,9.329-6.576l-5.143-43.9,2.709-72.882s8.617-61.066,26.837-57.615S908.493,426.106,908.493,426.106Z" transform="translate(-222.857 -131.837)"/><path class="h" d="M907.84,553.456s25.36-6.68,32.01,1.484S907.84,553.456,907.84,553.456Z" transform="translate(-254.236 -185.563)"/><path class="h" d="M899.88,569.44c8.617,6.034,35.209,6.279,35.209,6.279Z" transform="translate(-252.184 -190.347)"/><path class="h" d="M917.46,610.08c.742.245,18.28,18.963,25.642,13.3S917.46,610.08,917.46,610.08Z" transform="translate(-256.717 -200.825)"/><path class="h" d="M599.22,398.42s5.151,35.461,2.612,49.9,6.724,32.337,6.724,32.337Z" transform="translate(-174.667 -146.254)"/><path class="g" d="M421.118,415.505c-5.937,4.653-10.272,15.667-13.411,27.772-5.477,21.115-7.266,45.6-7.266,45.6s-47.277-10.836-43.833-15.756c2.167-3.095-.742-26.414-3.169-43.321-1.447-9.99-2.739-17.745-2.739-17.745S437.371,402.7,421.118,415.505Z" transform="translate(-110.593 -148.919)"/><path class="h" d="M421.118,414.176c-5.937,4.661-10.272,15.667-13.411,27.772a54.55,54.55,0,0,1-54.268-13.471c-1.447-10-2.739-17.753-2.739-17.753S437.371,401.374,421.118,414.176Z" transform="translate(-110.593 -148.577)"/><path class="g" d="M441.825,361.79a54.684,54.684,0,1,1-12.031-34.2A54.683,54.683,0,0,1,441.825,361.79Z" transform="translate(-105.887 -122.716)"/><path class="h" d="M531.552,821.317H515.967l-1.314-27.527L513.28,765.3s3.54-.527,9.181-1.314l2.279-.3h.186c1.232,5.782,2.449,11.719,3.622,17.649a181.357,181.357,0,0,1,3.036,31.914c0,.742,0,1.484,0,2.182C531.627,817.406,531.582,819.388,531.552,821.317Z" transform="translate(-152.51 -240.427)"/><path class="p" d="M465.97,750.5H270.51c.846-1.922,1.41-3.087,1.41-3.087s15.638-68.414,23.586-97.359a.372.372,0,0,0,0-.074A115.777,115.777,0,0,1,299.1,638.36h0a3.986,3.986,0,0,1,.349-.742c3.934-6.4,8.862-13.292,1.967-23.141s-4.453-53.184-4.453-53.184,8.372-36.938,17.233-56.636a26.5,26.5,0,0,1,5.626-8.164,23.01,23.01,0,0,1,2.464-2.093h0a21.65,21.65,0,0,1,2.063-1.373l.141-.089a29.776,29.776,0,0,1,12.12-3.763,34.577,34.577,0,0,1,9.092.252,135.7,135.7,0,0,1,35.016,9.648C405.5,509.963,413,524.555,413.149,524.859h0l.059.126c.995,2.323,15.541,36.285,20.781,52.13,1.358,4.127,2.1,7.029,1.8,7.823-1.484,3.934,11.326,53.177,11.326,53.177s5.937,23.75,11.875,51.589c.26,1.158.5,2.316.742,3.488,1.061,5.054,2.115,10.2,3.132,15.348a180.414,180.414,0,0,1,3.036,32.136Q466.066,745.716,465.97,750.5Z" transform="translate(-89.918 -169.605)"/><path class="h" d="M353.371,465.836s-13.485-5.2-13.322,2.687,3.288,11.652,2.3,12.8.49,8.045.49,8.045,18.22,0,26.592,3.77,39.231,11.326,43.172,13.626,18.554,12.617,18.554,12.617l1.314-19.534s-15.1-12.476-39.885-18.874S353.371,465.836,353.371,465.836Z" transform="translate(-107.846 -163.203)"/><path class="p" d="M353.371,464.506s-13.485-5.2-13.322,2.687,3.288,11.652,2.3,12.8.49,8.045.49,8.045,18.22,0,26.592,3.778,39.231,11.326,43.172,13.619,18.554,12.617,18.554,12.617l1.329-19.475s-15.1-12.476-39.885-18.874S353.371,464.506,353.371,464.506Z" transform="translate(-107.846 -162.86)"/><path class="h" d="M412.85,528.43s25.768,27.9,24.455,35.624S412.85,528.43,412.85,528.43Z" transform="translate(-126.616 -179.774)"/><path class="q" d="M439.006,741.85s-10.012,20.358-4.594,19.044S439.006,741.85,439.006,741.85Z" transform="translate(-131.761 -234.799)"/><path class="h" d="M347.384,664.22s-18.888,17.4-24.455,18.391,4.268,4.268,10.665,1.648,20.039-9.515,20.039-9.515Z" transform="translate(-103.009 -214.784)"/><path class="g" d="M517.657,820.709H473.609c-6.16-5.344-11.986-10.294-15.7-13.27-5.937-4.765-10.22-11.778-12.951-17.419-.616-1.284-1.15-2.486-1.6-3.577a59.645,59.645,0,0,1-2.137-5.752l32.619-19.371a50.985,50.985,0,0,1,5.069,4.958l.393.453c1.811,2.137,3.407,4.564,3.548,6.553.163,2.316,6.605,11.274,13.188,19.876,6.68,8.75,13.522,17.115,13.975,17.679h0s1.128,1.536,2.969,3.9C514.28,816.441,515.883,818.49,517.657,820.709Z" transform="translate(-133.931 -239.818)"/><path class="h" d="M429.8,327.6a31.816,31.816,0,0,0-3.177,11.133c-.586,11.355.364,36.745-12.209,42.445-6.227,2.805-12.892-3.355-19.72-3.5-4.913-.1-9.418,3.013-12.417,6.91s-4.861,8.52-7.036,12.929a88.311,88.311,0,0,1-6.821,11.5A28.936,28.936,0,0,1,365.9,412.2a54.669,54.669,0,1,1,63.9-84.571Z" transform="translate(-105.897 -122.725)"/><path class="m" d="M405.407,328.855c-.594,11.355.364,36.745-12.216,42.438-6.227,2.805-12.892-3.347-19.72-3.5-4.913-.111-9.411,3.013-12.417,6.9s-4.854,8.52-7.036,12.936a88.494,88.494,0,0,1-6.821,11.5c-1.529,2.167-3.221,4.342-5.574,5.559-4.1,2.137-9.062.935-13.456-.438q-8.55-2.694-16.847-6.071a16.992,16.992,0,0,0,.193-2.523c-.163.312-.341.6-.52.913l-.349.609c-.631,1.113-1.247,2.227-1.811,3.37-.215.438-.423.891-.609,1.343a17.071,17.071,0,0,0-1.388,5.314c-.379,4.95,2.063,9.648,4.23,14.1,8.335,17.226,13.485,37.369,7.214,55.441-2.716,7.86-7.422,14.844-10.858,22.436a72.488,72.488,0,0,0-5.069,42.883c1.714,9,5.151,17.9,4.3,27.023-1.484,15.7-15.022,27.379-28.581,35.409-7.325,4.319-16.291,8.164-24.069,4.75,4.958-5.789,6.234-13.8,7.3-21.352q4.386-30.912,8.795-61.853,1.759-12.313,3.51-24.625c2.182-15.422,4.394-31.016,3.028-46.535-.994-11.437-3.8-23.579,1.158-33.932,2.62-5.485,7.288-10.027,8.743-15.935,1.195-4.8.082-9.908.868-14.8a25.191,25.191,0,0,1,2.167-6.412,31.508,31.508,0,0,1,4.973-7.585c-1.989-.579-3.844-1.373-4.973-3.036,3.191-2.078,3.674-6.761,2.227-10.279s-4.342-6.2-6.947-8.973-5.114-6.012-5.44-9.8c-.631-7.207,6.568-12.788,7.837-19.9,1.284-7.236-3.793-14.272-3.384-21.6.475-8.854,8.609-15.289,16.64-19.022a75.7,75.7,0,0,1,38.8-6.68c10.821,1.024,21.293,4.371,32.084,5.67,6.509.742,13.107.816,19.571,1.959s12.944,3.555,17.493,8.3C420.458,305.38,406.089,315.674,405.407,328.855Z" transform="translate(-85.664 -114.852)"/><path class="h" d="M413.564,734.444c-3.785-1.64-10.672-.661-22.5-4.26s-14.1-19.868-14.1-19.868v-.052h0c-.141-.371-1.239-2.791-8.676-11.266-8.216-9.359-25.976-56.628-25.976-56.628s-15.749-16.914-15.252-23.148-2.8-22.822-2.471-41.376,35.454-30.86,35.454-30.86c67.635-11.986,51.707,65.987,49.9,71.895s7.555,21.865,7.555,21.865c-1.321,6.947,5.418,17.7,5.418,17.7s1.633,9.515,1.967,13.129a2.228,2.228,0,0,0,.111.49c1.084,3.407,9.915,6.494,13.508,8.372,3.778,1.974,15.927,19.208,15.927,19.208C457.056,712.3,417.334,736.107,413.564,734.444Z" transform="translate(-103.855 -184.236)"/><path class="p" d="M416.217,730.457c-3.778-1.648-10.673-.661-22.488-4.267s-14.1-19.861-14.1-19.861v-.052h0c-.134-.379-1.239-2.791-8.676-11.266-8.216-9.359-25.976-56.635-25.976-56.635s-15.749-16.907-15.259-23.141-2.791-22.822-2.464-41.361,35.432-30.837,35.432-30.837c67.635-11.986,51.707,65.987,49.9,71.895s7.555,21.865,7.555,21.865c-1.321,6.947,5.418,17.7,5.418,17.7s1.633,9.515,1.974,13.129a1.863,1.863,0,0,0,.1.49c1.084,3.407,9.915,6.494,13.515,8.372,3.77,1.967,15.927,19.208,15.927,19.208C459.716,708.326,419.994,732.135,416.217,730.457Z" transform="translate(-104.541 -183.217)"/><path class="h" d="M376.8,598.32s29.546,31.171,37.257,31.171S376.8,598.32,376.8,598.32Z" transform="translate(-117.322 -197.793)"/><path class="p" d="M434.419,774.333c-3.778-1.648-10.673-.661-22.488-4.268s-14.1-19.861-14.1-19.861v-.052h0c7.83-5.2,27.661-19.868,35.476-25.234,5.5-3.763,9.99-9.292,12.617-12.958,1.084,3.407,9.915,6.494,13.515,8.372,3.77,1.967,15.927,19.207,15.927,19.207C477.918,752.2,438.2,776.01,434.419,774.333Z" transform="translate(-122.744 -227.092)"/><g class="o" transform="translate(168.346 176.033)"><path d="M302,406.621c.037.059.089.111.134.171.223-.282.453-.564.69-.831A5.542,5.542,0,0,1,302,406.621Z" transform="translate(-266.383 -324.232)"/><path d="M306.846,447.312c.312-4.119,2.516-7.748,4.579-11.37-1.351-.52-2.7-1.046-4.037-1.6a16.818,16.818,0,0,0,.193-2.516c-2.086,3.711-4.357,7.362-4.676,11.541-.379,4.958,2.063,9.648,4.23,14.1,8.342,17.218,13.485,37.361,7.214,55.441-2.724,7.852-7.422,14.844-10.858,22.436a72.458,72.458,0,0,0-5.062,42.876c1.7,9,5.143,17.9,4.3,27.023-1.484,15.7-15.014,27.379-28.581,35.4-5.544,3.28-12.023,6.286-18.22,6.071a22.453,22.453,0,0,1-1.915,2.635c7.785,3.436,16.744-.43,24.069-4.765,13.574-8.015,27.134-19.668,28.618-35.394.846-9.121-2.6-18.02-4.3-27.023a72.518,72.518,0,0,1,5.047-42.876c3.414-7.585,8.164-14.584,10.858-22.436,6.271-18.079,1.121-38.222-7.214-55.441C308.924,456.938,306.467,452.27,306.846,447.312Z" transform="translate(-254.01 -330.901)"/><path d="M428.359,297.918a21.435,21.435,0,0,0-2.345-2.078c9,11.667-3.993,21.582-4.639,34.14-.579,11.355.371,36.753-12.209,42.438-6.219,2.813-12.892-3.347-19.712-3.5-4.921-.1-9.418,3.021-12.424,6.91s-4.854,8.52-7.028,12.929a88.884,88.884,0,0,1-6.828,11.5,16.284,16.284,0,0,1-5.581,5.566c-4.082,2.13-9.047.935-13.448-.445q-6.42-2.019-12.721-4.453a16.051,16.051,0,0,1-.193,2.308q8.3,3.384,16.855,6.071c4.394,1.38,9.359,2.575,13.448.445,2.353-1.225,4.06-3.4,5.581-5.574a87.421,87.421,0,0,0,6.821-11.5c2.182-4.409,4.023-9.047,7.036-12.936s7.5-7.006,12.417-6.9c6.828.148,13.5,6.309,19.72,3.5,12.58-5.685,11.622-31.082,12.209-42.438C426,320.7,440.367,310.416,428.359,297.918Z" transform="translate(-273.919 -295.84)"/></g><path class="h" d="M323.013,432.482c-.631,1.113-1.247,2.227-1.811,3.369-.215.438-.423.891-.609,1.343-3.889-3.919-13.359-13.233-18.643-16.12a31.653,31.653,0,0,1,4.973-7.585S319.517,420.147,323.013,432.482Z" transform="translate(-98.024 -150.14)"/><path class="p" d="M323.362,431.19c-2.917-13.2-16.439-20.35-16.439-20.35a31.5,31.5,0,0,0-4.973,7.585c5.574,3.05,15.845,13.278,19.252,16.743Z" transform="translate(-98.024 -149.456)"/></g></svg>